
<svg viewBox="0 0 100 100" height="470px" width="135" xmlns="http://www.w3.org/2000/svg" id="altitude">

	<g font-size="14" text-anchor="middle" font-family="sans-serif" fill="#fff" stroke="#fff" stroke-width="1.0">
		<rect height="470" width="135" y="-200" x="0" fill="#29B6F6"></rect> <!-- cielo -->
		<line stroke-width="2" x1="100" y1="-200" x2="100" y2="470"></line> <!-- SEPARADOR -->
		<rect height="320" width="4" y="-125" x="81" fill="#FFF"></rect> <!-- barra vertical -->

		<line stroke-width="1" y2="-124" x2="80" y1="-124" x1="50"></line>
		<!-- <text stroke-width="0.1" y="-120" x="33">11m</text> -->

		<line stroke-width="1" y2="-107" x2="80" y1="-107" x1="50"></line>
		<text stroke-width="0.1" y="-102" x="33">10m</text>

		<line stroke-width="1" y2="-89" x2="80" y1="-89" x1="50"></line>
		<text stroke-width="0.1" y="-84" x="33">9m</text>

		<line stroke-width="1" y2="-71" x2="80" y1="-71" x1="50"></line>
		<text stroke-width="0.1" y="-66" x="33">8m</text>

		<line stroke-width="1" y2="-53" x2="80" y1="-53" x1="50"></line>
		<text stroke-width="0.1" y="-48" x="33">7m</text>

		<line stroke-width="1" y2="-35" x2="80" y1="-35" x1="50"></line>
		<text stroke-width="0.1" y="-30" x="33">6m</text>

		<line stroke-width="1" y2="-17" x2="80" y1="-17" x1="50"></line>
		<text stroke-width="0.1" y="-12" x="33">5m</text>

		<line stroke-width="1" y2="1" x2="80" y1="1" x1="50"></line>
		<text stroke-width="0.1" y="6" x="33">4m</text>

		<line stroke-width="1" y2="19" x2="80" y1="19" x1="50"></line>
		<text stroke-width="0.1" y="24" x="33">3m</text>

		<line stroke-width="1" y2="37" x2="80" y1="37" x1="50"></line>
		<text stroke-width="0.1" y="42" x="33">2m</text>

		<line stroke-width="1" y2="55" x2="80" y1="55" x1="50"></line>
		<text stroke-width="0.1" y="60" x="33">1m</text>

		<line stroke-width="1" y2="62" x2="80" y1="62" x1="70"></line>
		<line stroke-width="1" y2="69" x2="80" y1="69" x1="70"></line>
		<line stroke-width="1" y2="76" x2="80" y1="76" x1="70"></line>
		<line stroke-width="1" y2="83" x2="80" y1="83" x1="70"></line>
		<line stroke-width="1" y2="90" x2="80" y1="90" x1="60"></line>
		<line stroke-width="1" y2="97" x2="80" y1="97" x1="70"></line>
		<line stroke-width="1" y2="104" x2="80" y1="104" x1="70"></line>
		<line stroke-width="1" y2="111" x2="80" y1="111" x1="70"></line>
		<line stroke-width="1" y2="118" x2="80" y1="118" x1="70"></line>

		<line stroke-width="1" y2="125" x2="80" y1="125" x1="50"></line>
		<text stroke-width="0.1" y="130" x="33">GND</text>

		<line stroke-width="1" y2="132" x2="80" y1="132" x1="70"></line>
		<line stroke-width="1" y2="139" x2="80" y1="139" x1="70"></line>
		<line stroke-width="1" y2="146" x2="80" y1="146" x1="70"></line>
		<line stroke-width="1" y2="153" x2="80" y1="153" x1="70"></line>
		<line stroke-width="1" y2="160" x2="80" y1="160" x1="60"></line>
		<line stroke-width="1" y2="167" x2="80" y1="167" x1="70"></line>
		<line stroke-width="1" y2="174" x2="80" y1="174" x1="70"></line>
		<line stroke-width="1" y2="181" x2="80" y1="181" x1="70"></line>
		<line stroke-width="1" y2="188" x2="80" y1="188" x1="70"></line>

		<line stroke-width="1" y2="195" x2="80" y1="195" x1="50"></line>
		<text stroke-width="0.1" y="200" x="33">-1m</text>

		<text stroke-width="0.5" y="218" x="50" id="altitude-level">NIVEL=XX,X</text>
	</g>

	<g transform="translate(0,-110)" stroke="yellow" stroke-width="1" id="altitude-position"> 
			<path d="M0 0 L100 0 z" fill="yellow"></path>
			<path d="M85 0 L100 -10 L100 10" fill="yellow"> </path>
	</g>

</svg>
