 
<svg viewBox="0 0 100 100" height="335px" width="500px" xmlns="http://www.w3.org/2000/svg" id="attitude">

	<g font-size="5" text-anchor="middle" font-family="sans-serif" transform="translate(50,62.5) rotate(-0.0)" fill="#fff" stroke="#fff" stroke-width="1" id="attitude-position">

		<rect height="600" width="600" y="-300" x="-300" fill="#29B6F6"></rect> <!-- cielo -->
		<rect height="600" width="600" y="0" x="-300" fill="#8B4513"></rect> <!-- tierra -->


		<rect height="75" width="600" y="-300" x="-300" fill="#8B4513"></rect> <!-- tierra arriba -->
		<rect height="75" width="600" y="225" x="-300" fill="#29B6F6"></rect> <!-- cielo abajo -->

		<line y2="-225" x2="-4" y1="-225" x1="-6"></line>
  		  <text stroke-width="0.1" font-size="3" y="-223.5" x="0">180</text>
		<line y2="-225" x2="6" y1="-225" x1="4"></line>
		
		<line y2="-212.5" x2="-4" y1="-212.5" x1="-6"></line>
  		  <text stroke-width="0.1" font-size="3" y="-211" x="0">170</text>
		<line y2="-212.5" x2="6" y1="-212.5" x1="4"></line>
		<line y2="-200" x2="-4" y1="-200" x1="-6"></line>
  		  <text stroke-width="0.1" font-size="3" y="-198.5" x="0">160</text>
		<line y2="-200" x2="6" y1="-200" x1="4"></line>
		<line y2="-187.5" x2="-4" y1="-187.5" x1="-6"></line>
  		  <text stroke-width="0.1" font-size="3" y="-186" x="0">150</text>
		<line y2="-187.5" x2="6" y1="-187.5" x1="4"></line>
		<line y2="-175" x2="-4" y1="-175" x1="-6"></line>
  		  <text stroke-width="0.1" font-size="3" y="-173.5" x="0">140</text>
		<line y2="-175" x2="6" y1="-175" x1="4"></line>
		<line y2="-162.5" x2="-4" y1="-162.5" x1="-6"></line>
  		  <text stroke-width="0.1" font-size="3" y="-161" x="0">130</text>
		<line y2="-162.5" x2="6" y1="-162.5" x1="4"></line>
		<line y2="-150" x2="-4" y1="-150" x1="-6"></line>
  		  <text stroke-width="0.1" font-size="3" y="-148.5" x="0">120</text>
		<line y2="-150" x2="6" y1="-150" x1="4"></line>
		<line y2="-137.5" x2="-4" y1="-137.5" x1="-6"></line>
  		  <text stroke-width="0.1" font-size="3" y="-136" x="0">110</text>
		<line y2="-137.5" x2="6" y1="-137.5" x1="4"></line>
		<line y2="-125" x2="-4" y1="-125" x1="-6"></line>
  		  <text stroke-width="0.1" font-size="3" y="-123.5" x="0">100</text>
		<line y2="-125" x2="6" y1="-125" x1="4"></line>

		<line y2="-118.75" x2="5" y1="-118.75" x1="-5"></line>
		<line y2="-112.5" x2="-4" y1="-112.5" x1="-10"></line>
		  <text stroke-width="0.1" y="-110.5" x="0">90</text>
		<line y2="-112.5" x2="10" y1="-112.5" x1="4"></line>
		<line y2="-106.25" x2="5" y1="-106.25" x1="-5"></line>
		<line y2="-100" x2="-4" y1="-100" x1="-10"></line>
		  <text stroke-width="0.1" y="-98" x="0">80</text>
		<line y2="-100" x2="10" y1="-100" x1="4"></line>
		<line y2="-93.75" x2="5" y1="-93.75" x1="-5"></line>
		<line y2="-87.5" x2="-4" y1="-87.5" x1="-10"></line>
		  <text stroke-width="0.1" y="-85.5" x="0">70</text>
		<line y2="-87.5" x2="10" y1="-87.5" x1="4"></line>
		<line y2="-81.25" x2="5" y1="-81.25" x1="-5"></line>
		<line y2="-68.75" x2="5" y1="-68.75" x1="-5"></line>
		<line y2="-75" x2="-4" y1="-75" x1="-10"></line>
		  <text stroke-width="0.1" y="-73" x="0">60</text>
		<line y2="-75" x2="10" y1="-75" x1="4"></line>
		<line y2="-56.25" x2="5" y1="-56.25" x1="-5"></line>
		<line y2="-62.5" x2="-4" y1="-62.5" x1="-10"></line>
		  <text stroke-width="0.1" y="-60.5" x="0">50</text>
		<line y2="-62.5" x2="10" y1="-62.5" x1="4"></line>
		<line y2="-43.75" x2="5" y1="-43.75" x1="-5"></line>
		<line y2="-50" x2="-4" y1="-50" x1="-10"></line>
		  <text stroke-width="0.1" y="-48" x="0">40</text>
		<line y2="-50" x2="10" y1="-50" x1="4"></line>
		<line y2="-31.25" x2="5" y1="-31.25" x1="-5"></line>
		<line y2="-37.5" x2="-4" y1="-37.5" x1="-10"></line>
		  <text stroke-width="0.1" y="-35.5" x="0">30</text>
		<line y2="-37.5" x2="10" y1="-37.5" x1="4"></line>
		<line y2="-18.75" x2="5" y1="-18.75" x1="-5"></line>
		<line y2="-25" x2="-4" y1="-25" x1="-10"></line>
		  <text stroke-width="0.1" y="-23" x="0">20</text>
		<line y2="-25" x2="10" y1="-25" x1="4"></line>
		<line y2="-6.25" x2="5" y1="-6.25" x1="-5"></line>
		<line y2="-12.5" x2="-4" y1="-12.5" x1="-10"></line>
		  <text stroke-width="0.1" y="-10.5" x="0">10</text>
		<line y2="6.25" x2="5" y1="6.25" x1="-5"></line>
		<line y2="-12.5" x2="10" y1="-12.5" x1="4"></line>
		<line y2="18.75" x2="5" y1="18.75" x1="-5"></line>
		<line y2="12.5" x2="-4" y1="12.5" x1="-10"></line>
		  <text stroke-width="0.1" y="14.5" x="0">10</text>
		<line y2="12.5" x2="10" y1="12.5" x1="4"></line>
		<line y2="31.25" x2="5" y1="31.25" x1="-5"></line>
		<line y2="25" x2="-4" y1="25" x1="-10"></line>
		  <text stroke-width="0.1" y="27" x="0">20</text>
		<line y2="25" x2="10" y1="25" x1="4"></line>
		<line y2="43.75" x2="5" y1="43.75" x1="-5"></line>
		<line y2="37.5" x2="-4" y1="37.5" x1="-10"></line>
		  <text stroke-width="0.1" y="39.5" x="0">30</text>
		<line y2="37.5" x2="10" y1="37.5" x1="4"></line>
		<line y2="56.25" x2="5" y1="56.25" x1="-5"></line>
		<line y2="50" x2="-4" y1="50" x1="-10"></line>
		  <text stroke-width="0.1" y="52" x="0">40</text>
		<line y2="50" x2="10" y1="50" x1="4"></line>
		<line y2="68.75" x2="5" y1="68.75" x1="-5"></line>
		<line y2="62.5" x2="-4" y1="62.5" x1="-10"></line>
		  <text stroke-width="0.1" y="64.5" x="0">50</text>
		<line y2="62.5" x2="10" y1="62.5" x1="4"></line>
		<line y2="81.25" x2="5" y1="81.25" x1="-5"></line>
		<line y2="75" x2="-4" y1="75" x1="-10"></line>
		  <text stroke-width="0.1" y="77" x="0">60</text>
		<line y2="75" x2="10" y1="75" x1="4"></line>
		<line y2="93.75" x2="5" y1="93.75" x1="-5"></line>
		<line y2="87.5" x2="-4" y1="87.5" x1="-10"></line>
		  <text stroke-width="0.1" y="89.5" x="0">70</text>
		<line y2="87.5" x2="10" y1="87.5" x1="4"></line>
		<line y2="106.25" x2="5" y1="106.25" x1="-5"></line>
		<line y2="100" x2="-4" y1="100" x1="-10"></line>
		  <text stroke-width="0.1" y="102" x="0">80</text>
		<line y2="100" x2="10" y1="100" x1="4"></line>
		<line y2="118.75" x2="5" y1="118.75" x1="-5"></line>
		<line y2="112.5" x2="-4" y1="112.5" x1="-10"></line>
		  <text stroke-width="0.1" y="114.5" x="0">90</text>
		<line y2="112.5" x2="10" y1="112.5" x1="4"></line>

		<line y2="125" x2="-4" y1="125" x1="-6"></line>
  		  <text stroke-width="0.1" font-size="3" y="126.5" x="0">100</text>
		<line y2="125" x2="6" y1="125" x1="4"></line>
		<line y2="137.5" x2="-4" y1="137.5" x1="-6"></line>
  		  <text stroke-width="0.1" font-size="3" y="139" x="0">110</text>
		<line y2="137.5" x2="6" y1="137.5" x1="4"></line>
		<line y2="150" x2="-4" y1="150" x1="-6"></line>
  		  <text stroke-width="0.1" font-size="3" y="151.5" x="0">120</text>
		<line y2="150" x2="6" y1="150" x1="4"></line>
		<line y2="162.5" x2="-4" y1="162.5" x1="-6"></line>
  		  <text stroke-width="0.1" font-size="3" y="164" x="0">130</text>
		<line y2="162.5" x2="6" y1="162.5" x1="4"></line>
		<line y2="175" x2="-4" y1="175" x1="-6"></line>
  		  <text stroke-width="0.1" font-size="3" y="176.5" x="0">140</text>
		<line y2="175" x2="6" y1="175" x1="4"></line>
		<line y2="187.5" x2="-4" y1="187.5" x1="-6"></line>
  		  <text stroke-width="0.1" font-size="3" y="189" x="0">150</text>
		<line y2="187.5" x2="6" y1="187.5" x1="4"></line>
		<line y2="200" x2="-4" y1="200" x1="-6"></line>
  		  <text stroke-width="0.1" font-size="3" y="201.5" x="0">160</text>
		<line y2="200" x2="6" y1="200" x1="4"></line>
		<line y2="212.5" x2="-4" y1="212.5" x1="-6"></line>
  		  <text stroke-width="0.1" font-size="3" y="214" x="0">170</text>
		<line y2="212.5" x2="6" y1="212.5" x1="4"></line>

		<line y2="225" x2="-4" y1="225" x1="-6"></line>
  		  <text stroke-width="0.1" font-size="3" y="226.5" x="0">180</text>
		<line y2="225" x2="6" y1="225" x1="4"></line>


	</g>

	<g text-anchor="middle" font-size="8" font-family="sans-serif" stroke-width="2" stroke="#ff0" fill="#fff">
		<line y2="50" x2="43" y1="50" x1="30"></line>
		<line y2="53" x2="42" y1="50" x1="42"></line>
		<line y2="50" x2="51" y1="50" x1="49"></line>
		<line y2="50" x2="58" y1="53" x1="58"></line>
		<line y2="50" x2="70" y1="50" x1="57"></line>
	</g>

	<g transform="translate(50,62.5)rotate(-0.0)" stroke="#fff" stroke-width="1" id="attitude-dial">
		<line y2="-42.44" x2="24.5" y1="-34.64" x1="20" stroke-width="2"></line>
		<line y2="-24.5" x2="42.44" y1="-20" x1="34.64" stroke-width="2"></line>
		<line y2="0" x2="49" y1="0" x1="40" stroke-width="2"></line>
		<line y2="-42.44" x2="-24.5" y1="-34.64" x1="-20" stroke-width="2"></line>
		<line y2="-24.5" x2="-42.44" y1="-20" x1="-34.64" stroke-width="2"></line>
		<line y2="0" x2="-49" y1="0" x1="-40" stroke-width="2"></line>
		<line y2="-44.32" x2="7.81" y1="-39.39" x1="6.95"></line>
		<line y2="-42.29" x2="15.39" y1="-37.59" x1="13.68"></line>
		<line y2="-31.82" x2="31.82" y1="-28.28" x1="28.28"></line>
		<line y2="-44.32" x2="-7.81" y1="-39.39" x1="-6.95"></line>
		<line y2="-42.29" x2="-15.39" y1="-37.59" x1="-13.68"></line>
		<line y2="-31.82" x2="-31.82" y1="-28.28" x1="-28.28"></line>
		<line y2="-45" x2="0" y1="-40" x1="0"></line>
		<path d="M-3 -45 L3 -45 L 0 -40 z" fill="#fff"></path>
	</g>

	<path d="M47 17 L53 17 L50 12 z" fill="#ff0" stroke="#ff0" stroke-width="1"></path>
	
</svg>
